<svg width="28" height="28" viewBox="0 0 28 28" fill="none" xmlns="http://www.w3.org/2000/svg">
<path d="M18.8884 2.33337H9.11171C4.86504 2.33337 2.33337 4.86504 2.33337 9.11171V18.8767C2.33337 23.135 4.86504 25.6667 9.11171 25.6667H18.8767C23.1234 25.6667 25.655 23.135 25.655 18.8884V9.11171C25.6667 4.86504 23.135 2.33337 18.8884 2.33337ZM21.595 15.3884C21.595 16.0884 21.0584 16.4384 20.4167 16.1584L16.5084 14.4784C16.0534 14.2917 15.6917 14.525 15.6917 15.015V17.1734C15.6917 17.36 15.7967 17.6284 15.9367 17.7684L17.85 19.6934C18.0484 19.8917 18.1417 20.2884 18.0484 20.5567L17.675 21.6767C17.5117 22.1667 16.9517 22.4 16.4967 22.1667L14.5484 20.51C14.245 20.265 13.755 20.265 13.4634 20.51L11.5034 22.1667C11.0367 22.4 10.4884 22.1667 10.325 21.665L9.95171 20.545C9.85837 20.2767 9.95171 19.88 10.15 19.6817L12.0984 17.7684C12.2267 17.64 12.3434 17.3717 12.3434 17.1734V15.015C12.3434 14.525 11.97 14.28 11.5267 14.4784L7.61837 16.1584C6.96504 16.4384 6.44004 16.0884 6.44004 15.3884V14.3034C6.44004 13.7434 6.87171 13.09 7.38504 12.8684L11.9817 10.885C12.1684 10.8034 12.3317 10.5584 12.3317 10.3484V7.93337C12.3317 7.14004 12.9034 6.19504 13.615 5.84504C13.8717 5.71671 14.1634 5.71671 14.42 5.84504C15.12 6.20671 15.7034 7.14004 15.7034 7.93337V10.3484C15.7034 10.5584 15.855 10.8034 16.0534 10.885L20.65 12.8684C21.175 13.09 21.595 13.7434 21.595 14.3034V15.3884Z" fill="white"/>
</svg>
