<svg width="28" height="28" viewBox="0 0 28 28" fill="none" xmlns="http://www.w3.org/2000/svg">
<path d="M25.6667 5.65838V19.53C25.6667 20.6617 24.745 21.7 23.6133 21.84L23.2517 21.8867C21.3383 22.1434 18.6433 22.9367 16.4733 23.8467C15.715 24.1617 14.875 23.59 14.875 22.7617V6.53338C14.875 6.10171 15.12 5.70504 15.505 5.49504C17.64 4.34004 20.8717 3.31338 23.065 3.12671H23.135C24.535 3.12671 25.6667 4.25838 25.6667 5.65838Z" fill="white"/>
<path d="M12.495 5.49504C10.36 4.34004 7.12832 3.31338 4.93499 3.12671H4.85332C3.45332 3.12671 2.32166 4.25838 2.32166 5.65838V19.53C2.32166 20.6617 3.24332 21.7 4.37499 21.84L4.73666 21.8867C6.64999 22.1434 9.34499 22.9367 11.515 23.8467C12.2733 24.1617 13.1133 23.59 13.1133 22.7617V6.53338C13.1133 6.09004 12.88 5.70504 12.495 5.49504ZM5.83332 9.03004H8.45832C8.93666 9.03004 9.33332 9.42671 9.33332 9.90504C9.33332 10.395 8.93666 10.78 8.45832 10.78H5.83332C5.35499 10.78 4.95832 10.395 4.95832 9.90504C4.95832 9.42671 5.35499 9.03004 5.83332 9.03004ZM9.33332 14.28H5.83332C5.35499 14.28 4.95832 13.895 4.95832 13.405C4.95832 12.9267 5.35499 12.53 5.83332 12.53H9.33332C9.81166 12.53 10.2083 12.9267 10.2083 13.405C10.2083 13.895 9.81166 14.28 9.33332 14.28Z" fill="white"/>
</svg>
