<svg width="50" height="30" viewBox="0 0 50 30" fill="none" xmlns="http://www.w3.org/2000/svg">
<rect width="50" height="30" rx="4" fill="#8200D2"/>
<path d="M40.5 15.3334C40.5 15.6067 40.2733 15.8334 40 15.8334H28C27.7267 15.8334 27.5 15.6067 27.5 15.3334C27.5 15.0601 27.7267 14.8334 28 14.8334H28.68L28.9333 13.6267C29.1733 12.4601 29.6733 11.3867 31.66 11.3867H36.34C38.3267 11.3867 38.8267 12.4601 39.0667 13.6267L39.32 14.8334H40C40.2733 14.8334 40.5 15.0601 40.5 15.3334Z" fill="white"/>
<path d="M40.7866 19.1066C40.6866 18.0066 40.3933 16.8333 38.2533 16.8333H29.7466C27.6066 16.8333 27.32 18.0066 27.2133 19.1066L26.84 23.1666C26.7933 23.6733 26.96 24.1799 27.3066 24.5599C27.66 24.9466 28.16 25.1666 28.6933 25.1666H29.9466C31.0266 25.1666 31.2333 24.5466 31.3666 24.1399L31.5 23.7399C31.6533 23.2799 31.6933 23.1666 32.2933 23.1666H35.7066C36.3066 23.1666 36.3266 23.2333 36.5 23.7399L36.6333 24.1399C36.7666 24.5466 36.9733 25.1666 38.0533 25.1666H39.3066C39.8333 25.1666 40.34 24.9466 40.6933 24.5599C41.04 24.1799 41.2066 23.6733 41.16 23.1666L40.7866 19.1066ZM32 20.4999H30C29.7266 20.4999 29.5 20.2733 29.5 19.9999C29.5 19.7266 29.7266 19.4999 30 19.4999H32C32.2733 19.4999 32.5 19.7266 32.5 19.9999C32.5 20.2733 32.2733 20.4999 32 20.4999ZM38 20.4999H36C35.7266 20.4999 35.5 20.2733 35.5 19.9999C35.5 19.7266 35.7266 19.4999 36 19.4999H38C38.2733 19.4999 38.5 19.7266 38.5 19.9999C38.5 20.2733 38.2733 20.4999 38 20.4999Z" fill="white"/>
<path d="M38.4511 9.20183L36.3111 7.06183L35.0045 5.7485C34.4511 5.19516 33.5511 5.19516 32.9978 5.7485L29.5445 9.20183C29.0911 9.65516 29.4178 10.4285 30.0511 10.4285H33.7911H37.9445C38.5845 10.4285 38.9045 9.65516 38.4511 9.20183Z" fill="white"/>
<line x1="19" y1="-4.23013e-08" x2="19" y2="30" stroke="white" stroke-width="2" stroke-dasharray="2 2"/>
</svg>
