<svg width="50" height="30" viewBox="0 0 50 30" fill="none" xmlns="http://www.w3.org/2000/svg">
<rect width="50" height="30" rx="4" fill="#8200D2"/>
<path d="M22.5 15.3334C22.5 15.6067 22.2733 15.8334 22 15.8334H10C9.72667 15.8334 9.5 15.6067 9.5 15.3334C9.5 15.0601 9.72667 14.8334 10 14.8334H10.68L10.9333 13.6267C11.1733 12.4601 11.6733 11.3867 13.66 11.3867H18.34C20.3267 11.3867 20.8267 12.4601 21.0667 13.6267L21.32 14.8334H22C22.2733 14.8334 22.5 15.0601 22.5 15.3334Z" fill="white"/>
<path d="M22.7866 19.1066C22.6866 18.0066 22.3933 16.8333 20.2533 16.8333H11.7466C9.60664 16.8333 9.31998 18.0066 9.21331 19.1066L8.83998 23.1666C8.79331 23.6733 8.95998 24.1799 9.30664 24.5599C9.65998 24.9466 10.16 25.1666 10.6933 25.1666H11.9466C13.0266 25.1666 13.2333 24.5466 13.3666 24.1399L13.5 23.7399C13.6533 23.2799 13.6933 23.1666 14.2933 23.1666H17.7066C18.3066 23.1666 18.3266 23.2333 18.5 23.7399L18.6333 24.1399C18.7666 24.5466 18.9733 25.1666 20.0533 25.1666H21.3066C21.8333 25.1666 22.34 24.9466 22.6933 24.5599C23.04 24.1799 23.2066 23.6733 23.16 23.1666L22.7866 19.1066ZM14 20.4999H12C11.7266 20.4999 11.5 20.2733 11.5 19.9999C11.5 19.7266 11.7266 19.4999 12 19.4999H14C14.2733 19.4999 14.5 19.7266 14.5 19.9999C14.5 20.2733 14.2733 20.4999 14 20.4999ZM20 20.4999H18C17.7266 20.4999 17.5 20.2733 17.5 19.9999C17.5 19.7266 17.7266 19.4999 18 19.4999H20C20.2733 19.4999 20.5 19.7266 20.5 19.9999C20.5 20.2733 20.2733 20.4999 20 20.4999Z" fill="white"/>
<path d="M20.4511 9.20183L18.3111 7.06183L17.0045 5.7485C16.4511 5.19516 15.5511 5.19516 14.9978 5.7485L11.5445 9.20183C11.0911 9.65516 11.4178 10.4285 12.0511 10.4285H15.7911H19.9445C20.5845 10.4285 20.9045 9.65516 20.4511 9.20183Z" fill="white"/>
<line x1="33" y1="-4.51684e-08" x2="33" y2="30" stroke="white" stroke-width="2" stroke-dasharray="2 2"/>
</svg>
