<svg width="32" height="32" viewBox="0 0 32 32" fill="none" xmlns="http://www.w3.org/2000/svg">
<path d="M6.66715 29.3333H25.3338M3.33382 10.6667H28.6672M13.3338 2.66666L10.6672 10.6667L16.0005 24.6667L21.3338 10.6667L18.6672 2.66666M16.7898 24.4651L28.7092 11.3537C28.9306 11.1102 29.0413 10.9884 29.0854 10.8498C29.1243 10.7276 29.1271 10.5968 29.0936 10.473C29.0554 10.3326 28.9501 10.2062 28.7394 9.95334L22.987 3.05046C22.8694 2.90938 22.8106 2.83884 22.7386 2.78813C22.6747 2.7432 22.6035 2.70983 22.5281 2.68955C22.443 2.66666 22.3512 2.66666 22.1676 2.66666H9.83342C9.64978 2.66666 9.55796 2.66666 9.47287 2.68955C9.39748 2.70983 9.32624 2.7432 9.26239 2.78813C9.19033 2.83884 9.13155 2.90938 9.01398 3.05046L3.26159 9.95333C3.05088 10.2062 2.94553 10.3326 2.90742 10.473C2.87384 10.5968 2.87666 10.7276 2.91554 10.8498C2.95965 10.9884 3.07035 11.1102 3.29175 11.3537L15.2112 24.4651C15.4848 24.7661 15.6216 24.9166 15.7824 24.9723C15.9237 25.0211 16.0773 25.0211 16.2185 24.9723C16.3793 24.9166 16.5161 24.7661 16.7898 24.4651Z" stroke="#676767" stroke-width="2" stroke-linecap="round" stroke-linejoin="round"/>
</svg>
