<svg width="24" height="24" viewBox="0 0 24 24" fill="none" xmlns="http://www.w3.org/2000/svg">
<path d="M17.02 21.2899L13.54 19.5499C12.57 19.0699 11.44 19.0699 10.47 19.5499L6.99 21.2899C4 22.7799 0.85 19.5699 2.41 16.6199L3.23 15.0799C3.34 14.8699 3.52 14.6999 3.74 14.5999L16.38 8.89993C16.9 8.66993 17.51 8.87993 17.77 9.37993L21.58 16.6199C23.14 19.5699 20 22.7799 17.02 21.2899Z" fill="white"/>
<path d="M15.6 7.69002L7.32 11.42C6.39 11.84 5.45 10.84 5.93 9.94002L8.97 4.17002C10.26 1.72002 13.76 1.72002 15.05 4.17002L16.12 6.21002C16.4 6.76002 16.16 7.44002 15.6 7.69002Z" fill="white"/>
</svg>
