<svg width="32" height="32" viewBox="0 0 32 32" fill="none" xmlns="http://www.w3.org/2000/svg">
<path d="M12 24V8.47387C12 7.83182 12 7.5108 12.1168 7.25043C12.2198 7.02091 12.3856 6.82521 12.595 6.68591C12.8326 6.52789 13.1493 6.47512 13.7826 6.36957L25.516 4.41401C26.3706 4.27157 26.7979 4.20035 27.1309 4.32405C27.4232 4.4326 27.6681 4.64011 27.8232 4.91054C28 5.21869 28 5.6519 28 6.51832V21.3333M12 24C12 26.2091 10.2091 28 8 28C5.79086 28 4 26.2091 4 24C4 21.7909 5.79086 20 8 20C10.2091 20 12 21.7909 12 24ZM28 21.3333C28 23.5425 26.2091 25.3333 24 25.3333C21.7909 25.3333 20 23.5425 20 21.3333C20 19.1242 21.7909 17.3333 24 17.3333C26.2091 17.3333 28 19.1242 28 21.3333Z" stroke="#666666" stroke-width="2" stroke-linecap="round" stroke-linejoin="round"/>
</svg>
