<svg width="28" height="28" viewBox="0 0 28 28" fill="none" xmlns="http://www.w3.org/2000/svg">
<path d="M21.6301 4.80669L15.2134 2.40335C14.5484 2.15835 13.4634 2.15835 12.7984 2.40335L6.38172 4.80669C5.14506 5.27335 4.14172 6.72002 4.14172 8.03835V17.4884C4.14172 18.4334 4.76006 19.6817 5.51839 20.2417L11.9351 25.0367C13.0667 25.8884 14.9217 25.8884 16.0534 25.0367L22.4701 20.2417C23.2284 19.67 23.8467 18.4334 23.8467 17.4884V8.03835C23.8584 6.72002 22.8551 5.27335 21.6301 4.80669ZM18.0601 11.34L13.0434 16.3567C12.8684 16.5317 12.6467 16.6134 12.4251 16.6134C12.2034 16.6134 11.9817 16.5317 11.8067 16.3567L9.94006 14.4667C9.60172 14.1284 9.60172 13.5684 9.94006 13.23C10.2784 12.8917 10.8384 12.8917 11.1767 13.23L12.4367 14.49L16.8351 10.0917C17.1734 9.75335 17.7334 9.75335 18.0717 10.0917C18.4101 10.43 18.4101 11.0017 18.0601 11.34Z" fill="white"/>
</svg>
