<svg width="32" height="32" viewBox="0 0 32 32" fill="none" xmlns="http://www.w3.org/2000/svg">
<path d="M16.0001 20C11.5818 20 8.00008 16.4183 8.00008 12V4.59258C8.00008 4.04079 8.00008 3.76489 8.08049 3.54396C8.21529 3.17361 8.50703 2.88186 8.87739 2.74707C9.09831 2.66666 9.37421 2.66666 9.92601 2.66666H22.0742C22.626 2.66666 22.9019 2.66666 23.1228 2.74707C23.4931 2.88186 23.7849 3.17361 23.9197 3.54396C24.0001 3.76489 24.0001 4.04079 24.0001 4.59258V12C24.0001 16.4183 20.4184 20 16.0001 20ZM16.0001 20V24M24.0001 5.33332H27.3334C27.9547 5.33332 28.2653 5.33332 28.5103 5.43482C28.837 5.57014 29.0966 5.82971 29.2319 6.15641C29.3334 6.40144 29.3334 6.71207 29.3334 7.33332V7.99999C29.3334 9.23995 29.3334 9.85993 29.1971 10.3686C28.8273 11.749 27.7491 12.8272 26.3687 13.197C25.86 13.3333 25.24 13.3333 24.0001 13.3333M8.00008 5.33332H4.66675C4.04549 5.33332 3.73486 5.33332 3.48984 5.43482C3.16313 5.57014 2.90357 5.82971 2.76824 6.15641C2.66675 6.40144 2.66675 6.71207 2.66675 7.33332V7.99999C2.66675 9.23995 2.66675 9.85993 2.80304 10.3686C3.17291 11.749 4.2511 12.8272 5.63147 13.197C6.14014 13.3333 6.76012 13.3333 8.00008 13.3333M9.92601 29.3333H22.0742C22.4014 29.3333 22.6667 29.068 22.6667 28.7407C22.6667 26.1225 20.5442 24 17.926 24H14.0742C11.4559 24 9.33341 26.1225 9.33341 28.7407C9.33341 29.068 9.59873 29.3333 9.92601 29.3333Z" stroke="#666666" stroke-width="2" stroke-linecap="round" stroke-linejoin="round"/>
</svg>
