<svg width="18" height="19" viewBox="0 0 18 19" fill="none" xmlns="http://www.w3.org/2000/svg">
<path d="M9 6.733V12.7801M6 9.75656H12M5.85 16.5596H12.15C13.4101 16.5596 14.0402 16.5596 14.5215 16.3124C14.9448 16.095 15.289 15.7481 15.5048 15.3214C15.75 14.8363 15.75 14.2013 15.75 12.9313V6.58183C15.75 5.31181 15.75 4.6768 15.5048 4.19172C15.289 3.76503 14.9448 3.41812 14.5215 3.20071C14.0402 2.95355 13.4101 2.95355 12.15 2.95355H5.85C4.58988 2.95355 3.95982 2.95355 3.47852 3.20071C3.05516 3.41812 2.71095 3.76503 2.49524 4.19172C2.25 4.6768 2.25 5.31181 2.25 6.58182V12.9313C2.25 14.2013 2.25 14.8363 2.49524 15.3214C2.71095 15.7481 3.05516 16.095 3.47852 16.3124C3.95982 16.5596 4.58988 16.5596 5.85 16.5596Z" stroke="#8D8D8D" stroke-width="2" stroke-linecap="round" stroke-linejoin="round"/>
</svg>
