<?xml version="1.0" encoding="UTF-8"?>
<svg id="Layer_1" xmlns="http://www.w3.org/2000/svg" viewBox="0 0 125.4 46.69">
  <defs>
    <style>
      .cls-1 {
        fill: #f1ddde;
      }

      .cls-2 {
        fill: #c55264;
      }

      .cls-3 {
        fill: #fff;
      }

      .cls-4 {
        fill: #f1dfdf;
      }

      .cls-5 {
        fill: #e4b5b8;
      }

      .cls-6 {
        fill: #a91e23;
      }
    </style>
  </defs>
  <rect class="cls-5" width="46.3" height="46.3"/>
  <g>
    <path class="cls-3" d="M53.66,5.72c-.16.06-.36.09-.61.09-.15,0-.28-.01-.38-.06-.1-.05-.2-.11-.28-.2-.07-.09-.15-.21-.17-.38-.04-.16-.07-.36-.07-.6v-2.24h1.88v-.75h-1.88V.07l-.87.15v4.35c0,.33.04.62.1.86.06.24.16.45.28.63.13.17.31.3.51.38.2.08.48.12.8.12.28,0,.52-.03.73-.11.22-.06.36-.12.45-.16l-.16-.72c-.06.05-.16.09-.32.15Z"/>
    <path class="cls-3" d="M57.91,1.98c-.15-.16-.34-.3-.57-.39-.23-.09-.52-.14-.86-.14-.29,0-.57.03-.83.08-.26.05-.44.09-.55.15l.1.72c.1-.04.26-.09.47-.12.2-.05.45-.06.73-.06.22,0,.39.03.54.11.13.06.25.15.32.27.07.1.15.24.17.38.03.14.06.29.06.42v.24s-.09-.02-.15-.03c-.06-.01-.15-.03-.22-.05-.09-.02-.18-.03-.26-.04-.09-.02-.18-.02-.26-.02-.26,0-.52.03-.77.09-.25.06-.45.15-.64.27-.19.12-.32.27-.44.47-.1.2-.16.42-.16.69,0,.29.04.52.13.72.09.19.22.36.38.48.16.12.36.21.58.27.22.06.47.09.74.09.19,0,.38-.01.57-.03.19-.02.36-.03.54-.05.16-.02.35-.04.48-.06s.19-.05.33-.05v-3.06c0-.27-.06-.52-.13-.75-.03-.24-.16-.44-.31-.6ZM57.51,5.78c-.15.03-.25.04-.41.04-.16.02-.33.02-.54.02-.34,0-.6-.06-.8-.18-.19-.12-.29-.35-.29-.65,0-.17.04-.3.12-.41.07-.11.17-.18.29-.24.12-.06.25-.11.39-.12.15-.01.28-.03.41-.03.19,0,.38.01.51.03.13.02.16.05.31.08v1.46Z"/>
    <path class="cls-3" d="M62.21,4.22c-.13-.12-.28-.21-.45-.3-.18-.09-.38-.16-.6-.25-.18-.06-.32-.12-.44-.18-.12-.06-.22-.12-.31-.18-.09-.06-.15-.13-.19-.23-.04-.08-.06-.18-.06-.29,0-.21.09-.36.26-.45.18-.09.38-.15.63-.15.28,0,.51.03.7.08.19.06.33.1.42.15l.16-.75s-.12-.05-.2-.06c-.09-.03-.19-.04-.31-.07-.12-.02-.23-.04-.38-.06-.13-.02-.26-.03-.41-.03-.54,0-.96.12-1.27.38-.31.26-.47.6-.47,1.04,0,.23.04.41.12.56.07.15.17.29.29.39.12.11.26.19.44.27.16.08.33.15.52.23.38.15.64.3.82.42s.25.3.25.51-.09.36-.25.45c-.16.09-.42.13-.77.13s-.64-.03-.85-.12c-.2-.09-.36-.14-.47-.17l-.16.75c.09.04.25.09.48.16.23.08.57.11.99.11.6,0,1.06-.12,1.38-.35.32-.23.48-.57.48-1.02,0-.22-.03-.42-.1-.59-.06-.14-.15-.27-.28-.37Z"/>
    <path class="cls-3" d="M65.88,5.72c-.16.06-.36.09-.61.09-.14,0-.28-.01-.38-.06-.1-.05-.2-.11-.28-.2-.07-.09-.09-.21-.13-.38-.04-.16-.01-.36-.01-.6v-2.24h1.73v-.75h-1.75V.07l-.87.15v4.35c0,.33,0,.62.06.86.06.24.13.45.26.63.13.17.29.3.5.38.2.08.47.12.8.12.28,0,.51-.03.73-.11.22-.06.36-.12.45-.16l-.16-.72c-.07.05-.19.09-.34.15Z"/>
    <path class="cls-3" d="M67.38,5.85c.19.23.44.41.74.53.31.12.66.2,1.08.2.33,0,.63-.03.87-.09.26-.06.44-.12.54-.18l-.12-.74c-.1.05-.26.11-.47.15-.21.06-.45.08-.76.08-.52,0-.92-.12-1.16-.39-.25-.27-.39-.69-.42-1.14h3.25s.03-.12.03-.18v-.15c0-.84-.19-1.46-.52-1.88-.34-.41-.83-.62-1.47-.62-.28,0-.54.06-.8.16-.26.11-.5.27-.7.48-.2.21-.36.48-.48.8-.12.31-.19.71-.19,1.12,0,.38.04.71.15,1.02.1.34.25.6.44.82ZM67.82,3.04c.06-.16.13-.3.25-.42.1-.12.23-.23.38-.3.15-.08.32-.12.51-.12.35,0,.61.12.82.38.2.26.29.51.29.96h-2.35c.01-.15.04-.33.1-.5Z"/>
    <path class="cls-3" d="M72.28,6.21c.16.12.33.21.55.27.2.06.44.09.69.09.19,0,.38-.02.57-.03.19-.02.35-.03.51-.06.15-.03.32-.04.44-.08.12-.02.15-.04.29-.06v-3.05c0-.26-.06-.5-.12-.72-.06-.22-.17-.41-.31-.57-.13-.16-.32-.29-.52-.38-.22-.09-.48-.13-.79-.13s-.57.01-.79.06c-.22.04-.38.09-.48.13l.09.54c.07-.03.2-.08.38-.12.17-.04.42-.07.77-.07.25,0,.44.04.58.12.14.08.26.18.35.32.09.14.1.27.12.44.03.16,0,.33,0,.5v.3s-.03-.03-.1-.05c-.06-.02-.12-.03-.2-.05-.09-.01-.17-.03-.26-.03s-.17-.02-.26-.02c-.29,0-.55.03-.79.09-.25.06-.45.15-.63.27-.17.12-.31.27-.41.47-.1.2-.15.42-.15.68,0,.27.04.51.13.7.06.17.19.32.34.44ZM72.53,4.54c.09-.12.19-.22.34-.3.13-.07.28-.12.44-.13.16-.02.31-.03.45-.03.26,0,.42.01.57.05.15.03.28.06.28.11v1.71s-.23.05-.41.06c-.17.02-.36.03-.58.03-.19,0-.35-.02-.5-.05-.15-.03-.28-.09-.38-.17-.1-.07-.19-.18-.25-.3-.06-.12-.09-.29-.09-.47,0-.21.04-.37.13-.51Z"/>
    <path class="cls-3" d="M78.82,5.93c-.15.06-.35.09-.6.09-.15,0-.28-.02-.41-.05-.12-.03-.22-.09-.31-.19-.09-.09-.16-.23-.22-.41-.04-.16-.09-.39-.09-.68v-2.51h1.88v-.6h-1.88V.07l-.58.12v4.48c0,.33.03.6.09.84.04.24.13.43.26.6.12.16.28.28.48.36.2.08.44.12.73.12.25,0,.48-.03.7-.11.22-.08.36-.13.45-.19l-.15-.51c-.1.03-.22.09-.36.15Z"/>
    <path class="cls-3" d="M80.86,5.87c-.06-.06-.1-.12-.13-.21-.03-.09-.06-.21-.06-.36V.07l-.58.12v5.12c0,.23.03.42.09.57.06.15.13.29.23.38.1.09.23.16.38.21.15.05.32.08.52.08l.09-.51c-.12-.02-.23-.05-.32-.06-.09-.01-.16-.06-.22-.11Z"/>
    <path class="cls-3" d="M85.11,2.01c-.13-.16-.31-.29-.53-.38-.22-.09-.48-.13-.79-.13s-.57.01-.77.06c-.22.04-.38.09-.48.13l.09.54c.07-.03.2-.08.38-.12.17-.04.42-.07.77-.07.25,0,.44.04.58.12.14.08.26.18.35.32.09.14.13.27.16.44.03.16.03.33.03.5v.3s-.07-.03-.13-.05c-.06-.02-.15-.03-.23-.05-.09-.01-.17-.03-.28-.03-.09-.02-.19-.02-.26-.02-.29,0-.55.03-.79.09-.25.06-.45.15-.63.27-.17.12-.31.27-.41.47-.1.2-.15.42-.15.68,0,.27.04.51.13.7.09.2.2.35.36.47.16.12.33.21.55.27.2.06.44.09.68.09.19,0,.38-.02.57-.03.19-.02.35-.03.51-.06.15-.03.28-.05.39-.08.12-.02.26-.05.26-.06v-3.08c0-.26-.01-.5-.09-.72-.09-.22-.17-.41-.31-.57ZM84.89,5.94c-.14.03-.26.05-.44.06-.18.02-.38.03-.61.03-.19,0-.35-.02-.51-.05-.15-.03-.28-.09-.38-.17-.1-.07-.19-.18-.25-.3-.06-.12-.09-.29-.09-.47,0-.21.04-.37.13-.5.09-.12.19-.22.34-.3.13-.08.28-.12.44-.13.16-.02.31-.03.45-.03.26,0,.45.02.6.05.15.03.32.06.32.1v1.7Z"/>
    <path class="cls-3" d="M89.53,4.67c-.07-.15-.19-.29-.31-.39-.13-.11-.28-.21-.44-.29-.16-.08-.34-.15-.52-.23-.17-.07-.33-.15-.47-.21-.13-.06-.25-.13-.35-.19-.09-.08-.16-.15-.22-.26-.04-.09-.07-.21-.07-.35s.03-.24.09-.33.13-.16.22-.23c.09-.06.19-.11.32-.13.12-.03.25-.05.38-.05.34,0,.58.03.76.09.17.06.29.12.36.15l.13-.54c-.09-.05-.23-.09-.44-.15-.2-.06-.48-.09-.8-.09-.51,0-.9.12-1.19.36-.29.24-.44.57-.44.96,0,.21.04.37.12.52s.17.27.29.38c.12.1.26.2.42.27.16.07.32.15.5.22.22.09.41.18.55.24.14.07.26.13.36.21.09.08.16.16.19.26.04.09.06.21.06.34,0,.27-.12.47-.34.59-.22.12-.51.18-.84.18-.19,0-.35-.02-.5-.04-.15-.03-.26-.06-.36-.09-.1-.03-.19-.06-.25-.09-.06-.03-.1-.05-.12-.06l-.16.56c.07.04.22.09.44.16.22.08.54.11.95.11.55,0,.99-.12,1.31-.35.32-.22.48-.56.48-.99,0-.21-.03-.41-.12-.56Z"/>
    <path class="cls-3" d="M79.3,7.58h-12.55v.26h12.55v-.26Z"/>
    <path class="cls-3" d="M76.7,8.34h-7.33v.26h7.33v-.26Z"/>
  </g>
  <g>
    <path class="cls-3" d="M62.62,10.59l-2.67,7.64h-.75l-2.18-6.26-2.19,6.26h-.74l-2.68-7.64h.9l2.17,6.39,2.22-6.39h.68s2.19,6.41,2.19,6.41l2.19-6.41h.87Z"/>
    <path class="cls-3" d="M65.11,17.84c-.52-.31-.93-.77-1.21-1.36s-.42-1.28-.42-2.08.14-1.5.42-2.08c.28-.59.68-1.04,1.2-1.35.52-.31,1.14-.47,1.86-.47s1.33.16,1.86.47.92.77,1.2,1.35.42,1.28.42,2.07-.14,1.5-.42,2.08-.69,1.04-1.21,1.36-1.14.48-1.85.48-1.32-.16-1.85-.47ZM68.85,16.74c.45-.55.68-1.33.68-2.34s-.22-1.79-.67-2.33c-.45-.54-1.08-.82-1.89-.82s-1.45.27-1.9.82c-.45.55-.68,1.32-.68,2.32s.23,1.79.68,2.34c.45.55,1.08.83,1.9.83s1.44-.28,1.89-.83Z"/>
    <path class="cls-3" d="M78.05,18.23h-.93l-.94-2.54c-.11-.31-.27-.53-.48-.63s-.49-.16-.86-.16h-1.91v3.34h-.87v-7.64h3.04c.82,0,1.45.18,1.89.55.44.36.66.89.66,1.58,0,.5-.13.92-.39,1.26-.26.34-.64.58-1.13.72.22.04.41.13.57.28.16.15.29.37.4.66l.97,2.59ZM75.01,14.16c1.17,0,1.76-.48,1.76-1.44,0-.47-.14-.82-.43-1.06s-.73-.35-1.33-.35h-2.09v2.84h2.09Z"/>
    <path class="cls-3" d="M79.48,10.59h.88v6.89h3.83v.75h-4.71v-7.64Z"/>
    <path class="cls-3" d="M85.33,10.59h2.57c1.22,0,2.17.33,2.84.99.67.66,1,1.6,1,2.82s-.33,2.17-1,2.83c-.67.67-1.62,1-2.84,1h-2.57v-7.64ZM87.85,17.48c.99,0,1.73-.26,2.23-.77.5-.52.75-1.28.75-2.31,0-2.04-.99-3.06-2.97-3.06h-1.63v6.14h1.63Z"/>
    <path class="cls-3" d="M96.14,10.59h4.72v.74h-3.85v2.65h3.64v.74h-3.64v3.51h-.87v-7.64Z"/>
    <path class="cls-3" d="M103.37,17.84c-.52-.31-.92-.77-1.21-1.36-.28-.59-.42-1.28-.42-2.08s.14-1.5.42-2.08.68-1.04,1.2-1.35,1.14-.47,1.86-.47,1.33.16,1.86.47.92.77,1.2,1.35c.28.59.42,1.28.42,2.07s-.14,1.5-.42,2.08c-.28.59-.69,1.04-1.21,1.36s-1.14.48-1.85.48-1.32-.16-1.85-.47ZM107.1,16.74c.45-.55.68-1.33.68-2.34s-.22-1.79-.67-2.33c-.45-.54-1.08-.82-1.89-.82s-1.45.27-1.9.82c-.45.55-.68,1.32-.68,2.32s.23,1.79.68,2.34c.45.55,1.08.83,1.9.83s1.44-.28,1.89-.83Z"/>
    <path class="cls-3" d="M111.65,17.84c-.52-.31-.92-.77-1.21-1.36-.28-.59-.42-1.28-.42-2.08s.14-1.5.42-2.08.68-1.04,1.2-1.35,1.14-.47,1.86-.47,1.33.16,1.86.47.92.77,1.2,1.35c.28.59.42,1.28.42,2.07s-.14,1.5-.42,2.08c-.28.59-.69,1.04-1.21,1.36s-1.14.48-1.85.48-1.32-.16-1.85-.47ZM115.39,16.74c.45-.55.68-1.33.68-2.34s-.22-1.79-.67-2.33c-.45-.54-1.08-.82-1.89-.82s-1.45.27-1.9.82c-.45.55-.68,1.32-.68,2.32s.23,1.79.68,2.34c.45.55,1.08.83,1.9.83s1.44-.28,1.89-.83Z"/>
    <path class="cls-3" d="M118.59,10.59h2.57c1.22,0,2.17.33,2.84.99.67.66,1,1.6,1,2.82s-.33,2.17-1,2.83c-.67.67-1.62,1-2.84,1h-2.57v-7.64ZM121.1,17.48c.99,0,1.73-.26,2.23-.77.5-.52.75-1.28.75-2.31,0-2.04-.99-3.06-2.97-3.06h-1.63v6.14h1.63Z"/>
  </g>
  <g>
    <path class="cls-3" d="M51.27,35.3l4.7-13.36h2.74l4.7,13.36h-2.73l-.84-2.42h-5.02l-.84,2.42h-2.72ZM57.27,25.01l-1.57,5.45h3.28l-1.57-5.45h-.14Z"/>
    <path class="cls-3" d="M77.46,21.95h3.01l-4.69,13.36h-2.49l-2.37-8.96h-.07l-2.39,8.96h-2.49l-4.24-13.36h2.78l2.67,8.98h.07l2.35-8.98h2.53l2.35,8.98h.07l2.9-8.98Z"/>
    <path class="cls-3" d="M78.66,35.3l4.7-13.36h2.74l4.7,13.36h-2.73l-.84-2.42h-5.02l-.84,2.42h-2.72ZM84.66,25.01l-1.57,5.45h3.28l-1.57-5.45h-.14Z"/>
    <path class="cls-3" d="M101.88,26.51c0,.93-.24,1.76-.71,2.49-.47.74-1.11,1.28-1.92,1.64l2.27,4.67h-2.73l-2.06-4.24h-2.67v4.24h-2.46v-13.36h5.71c1.27,0,2.35.44,3.24,1.32.89.88,1.33,1.96,1.33,3.24ZM97.32,24.37h-3.25v4.27h3.25c.57,0,1.04-.21,1.42-.62.39-.4.59-.91.59-1.51s-.2-1.11-.59-1.51c-.38-.42-.85-.62-1.42-.62Z"/>
    <path class="cls-3" d="M103.34,35.3v-13.36h4.65c1.95,0,3.57.64,4.88,1.91,1.32,1.26,1.98,2.85,1.98,4.77s-.66,3.53-1.98,4.79c-1.29,1.26-2.92,1.89-4.88,1.89h-4.65ZM112.21,28.63c0-1.16-.42-2.16-1.25-2.99-.82-.84-1.81-1.26-2.97-1.26h-2.12v8.51h2.12c1.16,0,2.15-.42,2.97-1.25.83-.83,1.25-1.83,1.25-3.01Z"/>
    <path class="cls-3" d="M125.1,25.8h-2.36c0-.5-.21-.92-.62-1.25-.41-.33-.91-.5-1.51-.5s-1.1.14-1.44.41c-.34.27-.51.64-.51,1.11,0,.3.07.55.2.77.14.22.34.39.62.53s.55.24.81.32c.26.07.6.15,1.02.23.46.09.85.18,1.17.26.32.09.68.22,1.08.42.4.19.72.42.96.67.24.26.45.6.62,1.05.17.44.26.95.26,1.52,0,1.23-.45,2.2-1.35,2.91-.89.72-2.04,1.07-3.44,1.07s-2.52-.37-3.39-1.11c-.85-.75-1.28-1.76-1.28-3.03h2.36c0,.58.22,1.06.65,1.46.43.39.99.59,1.66.59s1.24-.18,1.66-.53c.42-.35.63-.81.63-1.36,0-.41-.12-.74-.37-1.01-.25-.26-.57-.45-.97-.57-.4-.12-.84-.22-1.32-.32-.48-.09-.96-.21-1.43-.36s-.92-.34-1.32-.59c-.4-.24-.72-.61-.97-1.11-.25-.49-.37-1.1-.37-1.81,0-1.12.42-2,1.25-2.64.84-.65,1.91-.97,3.2-.97s2.39.34,3.22,1.02c.84.68,1.27,1.62,1.27,2.83Z"/>
  </g>
  <g>
    <path class="cls-3" d="M103.35,45.39v.73h-4.82v-.65l2.62-2.9c.35-.39.61-.75.77-1.06.16-.32.24-.63.24-.95,0-.41-.12-.73-.36-.95s-.58-.33-1.02-.33c-.71,0-1.42.29-2.12.86l-.33-.66c.29-.28.67-.5,1.12-.67.45-.17.9-.25,1.36-.25.69,0,1.23.18,1.63.53.4.35.6.83.6,1.44,0,.43-.1.84-.29,1.24-.19.4-.51.84-.96,1.33l-2.13,2.31h3.7Z"/>
    <path class="cls-3" d="M109.94,44.48h-1.14v1.63h-.86v-1.63h-3.45v-.65l3.61-5.21h.71v5.14h1.14v.71ZM107.94,43.77v-3.68l-2.56,3.68h2.56Z"/>
    <path class="cls-3" d="M110.04,46.69l2.7-8.46h.79l-2.71,8.46h-.78Z"/>
    <path class="cls-3" d="M118.97,45.39v.73h-4.82v-.65l2.62-2.9c.35-.39.61-.75.77-1.06.16-.32.24-.63.24-.95,0-.41-.12-.73-.36-.95s-.58-.33-1.02-.33c-.71,0-1.42.29-2.12.86l-.33-.66c.29-.28.67-.5,1.12-.67.45-.17.9-.25,1.36-.25.69,0,1.23.18,1.63.53.4.35.6.83.6,1.44,0,.43-.1.84-.29,1.24-.19.4-.51.84-.96,1.33l-2.13,2.31h3.7Z"/>
    <path class="cls-3" d="M124.3,41.71c.35.2.63.48.82.84.19.36.28.77.28,1.24s-.1.89-.31,1.25c-.21.37-.5.65-.88.85-.38.2-.83.3-1.34.3-.46,0-.9-.08-1.35-.25-.44-.16-.81-.39-1.12-.68l.33-.66c.69.58,1.41.86,2.14.86.53,0,.94-.15,1.24-.45s.45-.7.45-1.21-.15-.9-.44-1.2-.69-.46-1.18-.46c-.72,0-1.29.29-1.71.87h-.6v-4.39h4.49v.71h-3.63v2.67c.41-.4.94-.6,1.59-.6.47,0,.88.1,1.24.3Z"/>
  </g>
  <g>
    <path class="cls-2" d="M6.61,0H0v6.61h6.61V0Z"/>
    <path class="cls-5" d="M13.23,0h-6.61v6.61h6.61V0Z"/>
    <path class="cls-2" d="M19.84,0h-6.61v6.61h6.61V0Z"/>
    <path class="cls-5" d="M26.46,0h-6.61v6.61h6.61V0Z"/>
    <path class="cls-2" d="M33.07,0h-6.61v6.61h6.61V0Z"/>
    <path class="cls-5" d="M39.68,0h-6.61v6.61h6.61V0Z"/>
    <path class="cls-2" d="M46.3,0h-6.61v6.61h6.61V0Z"/>
    <path class="cls-6" d="M6.61,6.61H0v6.61h6.61v-6.61Z"/>
    <path class="cls-5" d="M6.61,13.23H0v6.61h6.61v-6.61Z"/>
    <path class="cls-1" d="M13.23,13.23h-6.61v6.61h6.61v-6.61Z"/>
    <path class="cls-2" d="M13.23,6.61h-6.61v6.61h6.61v-6.61Z"/>
    <path class="cls-6" d="M19.84,6.61h-6.61v6.61h6.61v-6.61Z"/>
    <path class="cls-2" d="M26.46,6.61h-6.61v6.61h6.61v-6.61Z"/>
    <path class="cls-6" d="M33.07,6.61h-6.61v6.61h6.61v-6.61Z"/>
    <path class="cls-2" d="M39.68,6.61h-6.61v6.61h6.61v-6.61Z"/>
    <path class="cls-6" d="M46.3,6.61h-6.61v6.61h6.61v-6.61Z"/>
    <path class="cls-5" d="M19.84,13.23h-6.61v6.61h6.61v-6.61Z"/>
    <path class="cls-4" d="M26.46,13.23h-6.61v6.61h6.61v-6.61Z"/>
    <path class="cls-5" d="M33.07,13.23h-6.61v6.61h6.61v-6.61Z"/>
    <path class="cls-4" d="M39.68,13.23h-6.61v6.61h6.61v-6.61Z"/>
    <path class="cls-5" d="M46.3,13.23h-6.61v6.61h6.61v-6.61Z"/>
    <path class="cls-6" d="M6.61,19.84H0v6.61h6.61v-6.61Z"/>
    <path class="cls-2" d="M13.23,19.84h-6.61v6.61h6.61v-6.61Z"/>
    <path class="cls-6" d="M19.84,19.84h-6.61v6.61h6.61v-6.61Z"/>
    <path class="cls-2" d="M26.46,19.84h-6.61v6.61h6.61v-6.61Z"/>
    <path class="cls-6" d="M33.07,19.84h-6.61v6.61h6.61v-6.61Z"/>
    <path class="cls-2" d="M39.68,19.84h-6.61v6.61h6.61v-6.61Z"/>
    <path class="cls-6" d="M46.3,19.84h-6.61v6.61h6.61v-6.61Z"/>
    <path class="cls-2" d="M6.61,26.46H0v6.61h6.61v-6.61Z"/>
    <path class="cls-1" d="M13.23,26.46h-6.61v6.61h6.61v-6.61Z"/>
    <path class="cls-5" d="M19.84,26.46h-6.61v6.61h6.61v-6.61Z"/>
    <path class="cls-1" d="M26.46,26.46h-6.61v6.61h6.61v-6.61Z"/>
    <path class="cls-5" d="M33.07,26.46h-6.61v6.61h6.61v-6.61Z"/>
    <path class="cls-1" d="M39.68,26.46h-6.61v6.61h6.61v-6.61Z"/>
    <path class="cls-2" d="M46.3,26.46h-6.61v6.61h6.61v-6.61Z"/>
    <path class="cls-6" d="M6.61,33.07H0v6.61h6.61v-6.61Z"/>
    <path class="cls-2" d="M13.23,33.07h-6.61v6.61h6.61v-6.61Z"/>
    <path class="cls-6" d="M19.84,33.07h-6.61v6.61h6.61v-6.61Z"/>
    <path class="cls-2" d="M26.46,33.07h-6.61v6.61h6.61v-6.61Z"/>
    <path class="cls-6" d="M33.07,33.07h-6.61v6.61h6.61v-6.61Z"/>
    <path class="cls-2" d="M39.68,33.07h-6.61v6.61h6.61v-6.61Z"/>
    <path class="cls-6" d="M46.3,33.07h-6.61v6.61h6.61v-6.61Z"/>
    <path class="cls-2" d="M6.61,39.68H0v6.61h6.61v-6.61Z"/>
    <path class="cls-5" d="M13.23,39.68h-6.61v6.61h6.61v-6.61Z"/>
    <path class="cls-2" d="M19.84,39.68h-6.61v6.61h6.61v-6.61Z"/>
    <path class="cls-5" d="M26.46,39.68h-6.61v6.61h6.61v-6.61Z"/>
    <path class="cls-2" d="M33.07,39.68h-6.61v6.61h6.61v-6.61Z"/>
    <path class="cls-5" d="M39.68,39.68h-6.61v6.61h6.61v-6.61Z"/>
    <path class="cls-2" d="M46.3,39.68h-6.61v6.61h6.61v-6.61Z"/>
  </g>
</svg>