<svg width="90" height="32" viewBox="0 0 90 32" fill="none" xmlns="http://www.w3.org/2000/svg">
<path d="M76.7509 20.2718H83.2767V31.5388L76.7509 20.2718ZM58.0958 13.9685V0.592999L65.8082 13.9685H58.0958ZM29.4654 31.978H36.211V20.2718H48.0762V13.9685H36.211V0H29.4654V31.978ZM9.68998 31.978H16.4355V6.30336H26.1256V0H0V6.30336H9.68998V31.978ZM82.6392 31.978H90V30.221C90 21.9409 84.99 13.9904 75.3445 13.9904H73.0813L67.9835 5.16129C65.962 1.66918 63.1495 0.0219628 58.6012 0.0219628H51.3501V32H58.0958V20.2937H69.4557L73.2351 26.8607C75.2784 30.3308 78.0906 31.978 82.6392 31.978Z" fill="#FF0350"/>
</svg>
