<svg width="32" height="32" viewBox="0 0 32 32" fill="none" xmlns="http://www.w3.org/2000/svg">
<path d="M24.6668 3.99999L23.3515 3.34232C22.8475 3.09033 22.5955 2.96434 22.3314 2.87548C22.0969 2.79657 21.8555 2.7396 21.6105 2.70529C21.3345 2.66666 21.0528 2.66666 20.4893 2.66666H11.511C10.9475 2.66666 10.6658 2.66666 10.3898 2.70529C10.1448 2.7396 9.90343 2.79657 9.66889 2.87548C9.4048 2.96434 9.15281 3.09033 8.64883 3.34232L7.3335 3.99999M14.6668 7.99999L12.0002 2.66666M17.3335 7.99999L20.0002 2.66666M5.3335 17.3333H26.6668M22.6668 26.6667L24.0002 29.3333M9.3335 26.6667L8.00037 29.3333M11.3335 22H11.3468M20.6668 22H20.6802M11.7335 26.6667H20.2668C22.507 26.6667 23.6271 26.6667 24.4828 26.2307C25.2354 25.8472 25.8474 25.2353 26.2309 24.4826C26.6668 23.627 26.6668 22.5069 26.6668 20.2667V14.4C26.6668 12.1598 26.6668 11.0397 26.2309 10.184C25.8474 9.43138 25.2354 8.81946 24.4828 8.43596C23.6271 7.99999 22.507 7.99999 20.2668 7.99999H11.7335C9.49329 7.99999 8.37318 7.99999 7.51753 8.43596C6.76489 8.81946 6.15296 9.43138 5.76947 10.184C5.3335 11.0397 5.3335 12.1598 5.3335 14.4V20.2667C5.3335 22.5069 5.3335 23.627 5.76947 24.4826C6.15296 25.2353 6.76489 25.8472 7.51753 26.2307C8.37318 26.6667 9.49329 26.6667 11.7335 26.6667ZM12.0002 22C12.0002 22.3682 11.7017 22.6667 11.3335 22.6667C10.9653 22.6667 10.6668 22.3682 10.6668 22C10.6668 21.6318 10.9653 21.3333 11.3335 21.3333C11.7017 21.3333 12.0002 21.6318 12.0002 22ZM21.3335 22C21.3335 22.3682 21.035 22.6667 20.6668 22.6667C20.2986 22.6667 20.0002 22.3682 20.0002 22C20.0002 21.6318 20.2986 21.3333 20.6668 21.3333C21.035 21.3333 21.3335 21.6318 21.3335 22Z" stroke="#666666" stroke-width="2" stroke-linecap="round" stroke-linejoin="round"/>
</svg>
